<svg width="55" height="55" viewBox="0 0 55 55" fill="none" xmlns="http://www.w3.org/2000/svg">
<path d="M27.5 55C12.3357 55 0 42.6643 0 27.5C0 12.3357 12.3357 0 27.5 0C42.6643 0 55 12.3357 55 27.5C55 42.6643 42.6643 55 27.5 55ZM27.5 3.92857C14.4964 3.92857 3.92857 14.4964 3.92857 27.5C3.92857 40.5036 14.4964 51.0714 27.5 51.0714C40.5036 51.0714 51.0714 40.5036 51.0714 27.5C51.0714 14.4964 40.5036 3.92857 27.5 3.92857Z" fill="white"/>
<path d="M27.5004 41.25C26.4004 41.25 25.5361 40.3857 25.5361 39.2857V15.7143C25.5361 14.6143 26.4004 13.75 27.5004 13.75C28.6004 13.75 29.4647 14.6143 29.4647 15.7143V39.2857C29.4647 40.3857 28.6004 41.25 27.5004 41.25Z" fill="white"/>
<path d="M39.2857 29.4645H15.7143C14.6143 29.4645 13.75 28.6002 13.75 27.5002C13.75 26.4002 14.6143 25.5359 15.7143 25.5359H39.2857C40.3857 25.5359 41.25 26.4002 41.25 27.5002C41.25 28.6002 40.3857 29.4645 39.2857 29.4645Z" fill="white"/>
</svg>
