<svg width="44" height="56" viewBox="0 0 44 56" fill="none" xmlns="http://www.w3.org/2000/svg">
<path fill-rule="evenodd" clip-rule="evenodd" d="M0.947266 8.44329C0.947266 6.3017 1.77903 4.24782 3.25958 2.73349C4.74013 1.21915 6.74819 0.368408 8.842 0.368408H35.1578C37.2516 0.368408 39.2597 1.21915 40.7402 2.73349C42.2208 4.24782 43.0525 6.3017 43.0525 8.44329V51.5847C43.0525 54.8684 39.421 56.7795 36.8104 54.8711L21.9999 44.0508L7.18937 54.8711C4.57621 56.7822 0.947266 54.8711 0.947266 51.5874V8.44329ZM8.842 5.75166C8.14406 5.75166 7.47471 6.03524 6.9812 6.54002C6.48768 7.0448 6.21042 7.72942 6.21042 8.44329V48.9711L19.7052 39.1117C20.3747 38.6224 21.177 38.3594 21.9999 38.3594C22.8228 38.3594 23.6251 38.6224 24.2946 39.1117L37.7894 48.9711V8.44329C37.7894 7.72942 37.5121 7.0448 37.0186 6.54002C36.5251 6.03524 35.8557 5.75166 35.1578 5.75166H8.842Z" fill="#E6E6E6"/>
</svg>
