<svg width="55" height="56" viewBox="0 0 55 56" fill="none" xmlns="http://www.w3.org/2000/svg">
<path d="M27.5 53.5C30.8493 53.5041 34.1664 52.8464 37.2608 51.5646C40.3551 50.2829 43.1657 48.4023 45.531 46.031C47.9023 43.6657 49.7829 40.8551 51.0646 37.7608C52.3464 34.6664 53.0041 31.3493 53 28C53.0041 24.6507 52.3464 21.3336 51.0646 18.2392C49.7829 15.1449 47.9023 12.3343 45.531 9.96896C43.1657 7.59767 40.3551 5.71712 37.2608 4.43536C34.1664 3.1536 30.8493 2.49589 27.5 2.50002C24.1507 2.49589 20.8336 3.1536 17.7392 4.43536C14.6449 5.71712 11.8343 7.59767 9.46896 9.96896C7.09767 12.3343 5.21712 15.1449 3.93536 18.2392C2.6536 21.3336 1.99589 24.6507 2.00002 28C1.99589 31.3493 2.6536 34.6664 3.93536 37.7608C5.21712 40.8551 7.09767 43.6657 9.46896 46.031C11.8343 48.4023 14.6449 50.2829 17.7392 51.5646C20.8336 52.8464 24.1507 53.5041 27.5 53.5Z" stroke="white" stroke-width="4" stroke-linejoin="round"/>
<path d="M17.3 28L24.95 35.65L40.25 20.35" stroke="white" stroke-width="4" stroke-linecap="round" stroke-linejoin="round"/>
</svg>
