<svg width="35" height="39" viewBox="0 0 35 39" fill="none" xmlns="http://www.w3.org/2000/svg">
<path fill-rule="evenodd" clip-rule="evenodd" d="M29.1645 6.14467e-07C28.3059 -3.11887e-05 27.4579 0.190053 26.681 0.556682C25.9041 0.923311 25.2175 1.45744 24.6702 2.12095C24.1229 2.78445 23.7283 3.56097 23.5148 4.39505C23.3012 5.22914 23.2739 6.10023 23.4347 6.94614L9.60315 15.0389C8.7542 14.3176 7.71725 13.8548 6.61464 13.7052C5.51203 13.5556 4.38977 13.7255 3.38026 14.1947C2.37075 14.6639 1.51611 15.413 0.917174 16.3535C0.31824 17.294 0 18.3866 0 19.5026C0 20.6186 0.31824 21.7113 0.917174 22.6517C1.51611 23.5922 2.37075 24.3413 3.38026 24.8105C4.38977 25.2798 5.51203 25.4496 6.61464 25.3C7.71725 25.1504 8.7542 24.6877 9.60315 23.9663L23.4347 32.0552C23.366 32.4114 23.3317 32.7767 23.3317 33.1511C23.332 34.4839 23.786 35.7766 24.6186 36.8154C25.4512 37.8541 26.6125 38.5765 27.9102 38.8631C29.208 39.1497 30.5644 38.9833 31.755 38.3914C32.9456 37.7995 33.899 36.8175 34.4573 35.6081C35.0157 34.3987 35.1457 33.0343 34.8256 31.7408C34.5056 30.4472 33.7547 29.3021 32.6974 28.4948C31.64 27.6875 30.3396 27.2666 29.0112 27.3016C27.6828 27.3366 26.4062 27.8256 25.3926 28.6874L11.563 20.5946C11.7004 19.8712 11.7004 19.1282 11.563 18.4047L25.3946 10.3119C26.1108 10.9212 26.9631 11.3479 27.879 11.5559C28.7949 11.764 29.7473 11.7471 30.6553 11.5068C31.5633 11.2665 32.4001 10.8098 33.0944 10.1757C33.7887 9.54148 34.3202 8.74853 34.6435 7.86422C34.9667 6.9799 35.0724 6.03037 34.9514 5.09633C34.8304 4.16229 34.4863 3.27137 33.9484 2.49929C33.4105 1.72722 32.6947 1.09682 31.8618 0.661695C31.0289 0.226566 30.1036 -0.000431039 29.1645 6.14467e-07Z" fill="white"/>
</svg>
