<svg width="35" height="39" viewBox="0 0 35 39" fill="none" xmlns="http://www.w3.org/2000/svg">
<path d="M1.84211 19.0357V18.5714C1.84211 17.0238 2.37939 15.7083 3.45395 14.625C4.52851 13.5417 5.83333 13 7.36842 13C8.10526 13 8.79605 13.1319 9.44079 13.3956C10.0855 13.6593 10.6535 14.0227 11.1447 14.4857L24.0855 6.87142C24.0241 6.65476 23.9861 6.44614 23.9713 6.24557C23.9566 6.045 23.9486 5.82028 23.9474 5.57143C23.9474 4.02381 24.4847 2.70833 25.5592 1.625C26.6338 0.541666 27.9386 0 29.4737 0C31.0088 0 32.3136 0.541666 33.3882 1.625C34.4627 2.70833 35 4.02381 35 5.57143C35 7.11904 34.4627 8.43452 33.3882 9.51785C32.3136 10.6012 31.0088 11.1429 29.4737 11.1429C28.7368 11.1429 28.0461 11.011 27.4013 10.7473C26.7566 10.4836 26.1886 10.1202 25.6974 9.65714L12.8026 17.225C12.2193 17.0702 11.6286 16.9464 11.0305 16.8536C10.4325 16.7607 9.82579 16.7143 9.21053 16.7143C7.82895 16.7143 6.51676 16.9155 5.27395 17.3178C4.03114 17.7202 2.88719 18.2928 1.84211 19.0357ZM29.4737 37.1428C27.9386 37.1428 26.6338 36.6012 25.5592 35.5178C24.4847 34.4345 23.9474 33.119 23.9474 31.5714C23.9474 31.3857 23.9934 30.9524 24.0855 30.2714L22.1053 29.0643C22.0439 28.3214 21.9364 27.6021 21.7829 26.9063C21.6294 26.2105 21.4145 25.5215 21.1382 24.8393L25.6974 27.4857C26.1886 27.0214 26.7566 26.658 27.4013 26.3956C28.0461 26.1331 28.7368 26.0012 29.4737 26C31.0088 26 32.3136 26.5417 33.3882 27.625C34.4627 28.7083 35 30.0238 35 31.5714C35 33.119 34.4627 34.4345 33.3882 35.5178C32.3136 36.6012 31.0088 37.1428 29.4737 37.1428ZM9.21053 39C6.66228 39 4.49044 38.0949 2.695 36.2848C0.899563 34.4747 0.00122933 32.2846 1.25741e-06 29.7143C-0.00122681 27.144 0.897107 24.9544 2.695 23.1456C4.4929 21.3367 6.66474 20.431 9.21053 20.4286C11.7563 20.4261 13.9288 21.3318 15.7279 23.1456C17.527 24.9594 18.4247 27.1489 18.4211 29.7143C18.4174 32.2796 17.519 34.4698 15.7261 36.2848C13.9331 38.0999 11.7612 39.0049 9.21053 39ZM9.21053 31.0143L12.4342 34.3107L13.7697 33.0107L10.5 29.7143L13.7697 26.4178L12.4803 25.1178L9.21053 28.4143L5.94079 25.1178L4.65132 26.4178L7.92105 29.7143L4.65132 33.0107L5.94079 34.3107L9.21053 31.0143Z" fill="white"/>
</svg>
